<svg width="200px" height="146px" viewBox="0 0 200 146" version="1.1" xmlns="http://www.w3.org/2000/svg"
	xmlns:xlink="http://www.w3.org/1999/xlink">
	<g id="页面-4" stroke="none" stroke-width="1" fill="none" fill-rule="evenodd">
		<g id="编组-2备份" fill="#999999" fill-rule="nonzero">
			<g id="域名" transform="translate(44.372, 107.976)">
				<path
					d="M2.576,7.328 L2.528,2.688 C2.51733333,2.144 2.46133333,1.78133333 2.36,1.6 C2.25866667,1.41866667 2.05866667,1.328 1.76,1.328 C1.65333333,1.328 1.49866667,1.34133333 1.296,1.368 C1.09333333,1.39466667 0.938666667,1.408 0.832,1.408 C0.416,1.408 0.208,1.22133333 0.208,0.848 C0.208,0.474666667 0.405333333,0.288 0.8,0.288 C0.928,0.288 1.128,0.301333333 1.4,0.328 C1.672,0.354666667 1.88266667,0.368 2.032,0.368 C2.37333333,0.368 2.656,0.357333333 2.88,0.336 C3.21066667,0.304 3.41333333,0.288 3.488,0.288 C3.72266667,0.288 3.86666667,0.357333333 3.92,0.496 C3.96266667,0.592 3.984,0.757333333 3.984,0.992 C3.984,1.024 3.97866667,1.152 3.968,1.376 C3.91466667,2.51733333 3.888,3.552 3.888,4.48 L3.888,6.288 C3.888,6.61866667 3.89333333,7.06133333 3.904,7.616 C3.92533333,8.288 3.936,8.73066667 3.936,8.944 C3.94666667,9.68 4.192,10.048 4.672,10.048 C4.78933333,10.048 4.96533333,10.0346667 5.2,10.008 C5.43466667,9.98133333 5.61066667,9.968 5.728,9.968 C6.24,9.968 6.496,10.1546667 6.496,10.528 C6.496,10.9013333 6.26133333,11.088 5.792,11.088 C5.61066667,11.088 5.44,11.0773333 5.28,11.056 C4.384,10.9386667 3.70133333,10.88 3.232,10.88 C2.76266667,10.88 2.18666667,10.928 1.504,11.024 C1.12,11.0773333 0.848,11.104 0.688,11.104 C0.229333333,11.104 1.42108547e-14,10.912 1.42108547e-14,10.528 C1.42108547e-14,10.1546667 0.261333333,9.968 0.784,9.968 C0.944,9.968 1.10933333,9.984 1.28,10.016 C1.536,10.0373333 1.696,10.048 1.76,10.048 C2.13333333,10.048 2.36266667,9.90133333 2.448,9.608 C2.53333333,9.31466667 2.576,8.55466667 2.576,7.328 Z"
					id="路径"></path>
				<path
					d="M13.264,11.376 C11.9093333,11.376 10.8453333,10.8773333 10.072,9.88 C9.29866667,8.88266667 8.912,7.50933333 8.912,5.76 C8.912,3.97866667 9.31466667,2.57333333 10.12,1.544 C10.9253333,0.514666667 12.0266667,-1.13686838e-13 13.424,-1.13686838e-13 C14.7573333,-1.13686838e-13 15.8106667,0.493333333 16.584,1.48 C17.3573333,2.46666667 17.744,3.80266667 17.744,5.488 C17.744,7.312 17.344,8.74933333 16.544,9.8 C15.744,10.8506667 14.6506667,11.376 13.264,11.376 Z M13.392,1.184 C11.4293333,1.184 10.4106667,2.65066667 10.336,5.584 C10.336,5.584 10.336,5.664 10.336,5.824 C10.336,7.22133333 10.592,8.30133333 11.104,9.064 C11.616,9.82666667 12.3413333,10.208 13.28,10.208 C14.24,10.208 14.992,9.792 15.536,8.96 C16.08,8.128 16.352,6.98133333 16.352,5.52 C16.352,4.12266667 16.096,3.05066667 15.584,2.304 C15.072,1.55733333 14.3413333,1.184 13.392,1.184 Z"
					id="形状"></path>
				<path
					d="M22.96,7.328 L22.912,2.688 C22.9013333,2.144 22.8453333,1.78133333 22.744,1.6 C22.6426667,1.41866667 22.4426667,1.328 22.144,1.328 C22.0373333,1.328 21.8826667,1.34133333 21.68,1.368 C21.4773333,1.39466667 21.3226667,1.408 21.216,1.408 C20.8,1.408 20.592,1.22133333 20.592,0.848 C20.592,0.474666667 20.7893333,0.288 21.184,0.288 C21.312,0.288 21.512,0.301333333 21.784,0.328 C22.056,0.354666667 22.2666667,0.368 22.416,0.368 C22.7573333,0.368 23.04,0.357333333 23.264,0.336 C23.5946667,0.304 23.7973333,0.288 23.872,0.288 C24.1066667,0.288 24.2506667,0.357333333 24.304,0.496 C24.3466667,0.592 24.368,0.757333333 24.368,0.992 C24.368,1.024 24.3626667,1.152 24.352,1.376 C24.2986667,2.51733333 24.272,3.552 24.272,4.48 L24.272,6.288 C24.272,6.61866667 24.2773333,7.06133333 24.288,7.616 C24.3093333,8.288 24.32,8.73066667 24.32,8.944 C24.3306667,9.68 24.576,10.048 25.056,10.048 C25.1733333,10.048 25.3493333,10.0346667 25.584,10.008 C25.8186667,9.98133333 25.9946667,9.968 26.112,9.968 C26.624,9.968 26.88,10.1546667 26.88,10.528 C26.88,10.9013333 26.6453333,11.088 26.176,11.088 C25.9946667,11.088 25.824,11.0773333 25.664,11.056 C24.768,10.9386667 24.0853333,10.88 23.616,10.88 C23.1466667,10.88 22.5706667,10.928 21.888,11.024 C21.504,11.0773333 21.232,11.104 21.072,11.104 C20.6133333,11.104 20.384,10.912 20.384,10.528 C20.384,10.1546667 20.6453333,9.968 21.168,9.968 C21.328,9.968 21.4933333,9.984 21.664,10.016 C21.92,10.0373333 22.08,10.048 22.144,10.048 C22.5173333,10.048 22.7466667,9.90133333 22.832,9.608 C22.9173333,9.31466667 22.96,8.55466667 22.96,7.328 Z"
					id="路径"></path>
				<path
					d="M33.152,7.328 L33.104,2.688 C33.0933333,2.144 33.0373333,1.78133333 32.936,1.6 C32.8346667,1.41866667 32.6346667,1.328 32.336,1.328 C32.2293333,1.328 32.0746667,1.34133333 31.872,1.368 C31.6693333,1.39466667 31.5146667,1.408 31.408,1.408 C30.992,1.408 30.784,1.22133333 30.784,0.848 C30.784,0.474666667 30.9813333,0.288 31.376,0.288 C31.504,0.288 31.704,0.301333333 31.976,0.328 C32.248,0.354666667 32.4586667,0.368 32.608,0.368 C32.9493333,0.368 33.232,0.357333333 33.456,0.336 C33.7866667,0.304 33.9893333,0.288 34.064,0.288 C34.2986667,0.288 34.4426667,0.357333333 34.496,0.496 C34.5386667,0.592 34.56,0.757333333 34.56,0.992 C34.56,1.024 34.5546667,1.152 34.544,1.376 C34.4906667,2.51733333 34.464,3.552 34.464,4.48 L34.464,6.288 C34.464,6.61866667 34.4693333,7.06133333 34.48,7.616 C34.5013333,8.288 34.512,8.73066667 34.512,8.944 C34.5226667,9.68 34.768,10.048 35.248,10.048 C35.3653333,10.048 35.5413333,10.0346667 35.776,10.008 C36.0106667,9.98133333 36.1866667,9.968 36.304,9.968 C36.816,9.968 37.072,10.1546667 37.072,10.528 C37.072,10.9013333 36.8373333,11.088 36.368,11.088 C36.1866667,11.088 36.016,11.0773333 35.856,11.056 C34.96,10.9386667 34.2773333,10.88 33.808,10.88 C33.3386667,10.88 32.7626667,10.928 32.08,11.024 C31.696,11.0773333 31.424,11.104 31.264,11.104 C30.8053333,11.104 30.576,10.912 30.576,10.528 C30.576,10.1546667 30.8373333,9.968 31.36,9.968 C31.52,9.968 31.6853333,9.984 31.856,10.016 C32.112,10.0373333 32.272,10.048 32.336,10.048 C32.7093333,10.048 32.9386667,9.90133333 33.024,9.608 C33.1093333,9.31466667 33.152,8.55466667 33.152,7.328 Z"
					id="路径"></path>
				<path
					d="M43.84,11.376 C42.4853333,11.376 41.4213333,10.8773333 40.648,9.88 C39.8746667,8.88266667 39.488,7.50933333 39.488,5.76 C39.488,3.97866667 39.8906667,2.57333333 40.696,1.544 C41.5013333,0.514666667 42.6026667,-1.13686838e-13 44,-1.13686838e-13 C45.3333333,-1.13686838e-13 46.3866667,0.493333333 47.16,1.48 C47.9333333,2.46666667 48.32,3.80266667 48.32,5.488 C48.32,7.312 47.92,8.74933333 47.12,9.8 C46.32,10.8506667 45.2266667,11.376 43.84,11.376 Z M43.968,1.184 C42.0053333,1.184 40.9866667,2.65066667 40.912,5.584 C40.912,5.584 40.912,5.664 40.912,5.824 C40.912,7.22133333 41.168,8.30133333 41.68,9.064 C42.192,9.82666667 42.9173333,10.208 43.856,10.208 C44.816,10.208 45.568,9.792 46.112,8.96 C46.656,8.128 46.928,6.98133333 46.928,5.52 C46.928,4.12266667 46.672,3.05066667 46.16,2.304 C45.648,1.55733333 44.9173333,1.184 43.968,1.184 Z"
					id="形状"></path>
				<path
					d="M54.032,11.376 C52.6773333,11.376 51.6133333,10.8773333 50.84,9.88 C50.0666667,8.88266667 49.68,7.50933333 49.68,5.76 C49.68,3.97866667 50.0826667,2.57333333 50.888,1.544 C51.6933333,0.514666667 52.7946667,-1.13686838e-13 54.192,-1.13686838e-13 C55.5253333,-1.13686838e-13 56.5786667,0.493333333 57.352,1.48 C58.1253333,2.46666667 58.512,3.80266667 58.512,5.488 C58.512,7.312 58.112,8.74933333 57.312,9.8 C56.512,10.8506667 55.4186667,11.376 54.032,11.376 Z M54.16,1.184 C52.1973333,1.184 51.1786667,2.65066667 51.104,5.584 C51.104,5.584 51.104,5.664 51.104,5.824 C51.104,7.22133333 51.36,8.30133333 51.872,9.064 C52.384,9.82666667 53.1093333,10.208 54.048,10.208 C55.008,10.208 55.76,9.792 56.304,8.96 C56.848,8.128 57.12,6.98133333 57.12,5.52 C57.12,4.12266667 56.864,3.05066667 56.352,2.304 C55.84,1.55733333 55.1093333,1.184 54.16,1.184 Z"
					id="形状"></path>
				<path
					d="M64.224,11.376 C62.8693333,11.376 61.8053333,10.8773333 61.032,9.88 C60.2586667,8.88266667 59.872,7.50933333 59.872,5.76 C59.872,3.97866667 60.2746667,2.57333333 61.08,1.544 C61.8853333,0.514666667 62.9866667,-1.13686838e-13 64.384,-1.13686838e-13 C65.7173333,-1.13686838e-13 66.7706667,0.493333333 67.544,1.48 C68.3173333,2.46666667 68.704,3.80266667 68.704,5.488 C68.704,7.312 68.304,8.74933333 67.504,9.8 C66.704,10.8506667 65.6106667,11.376 64.224,11.376 Z M64.352,1.184 C62.3893333,1.184 61.3706667,2.65066667 61.296,5.584 C61.296,5.584 61.296,5.664 61.296,5.824 C61.296,7.22133333 61.552,8.30133333 62.064,9.064 C62.576,9.82666667 63.3013333,10.208 64.24,10.208 C65.2,10.208 65.952,9.792 66.496,8.96 C67.04,8.128 67.312,6.98133333 67.312,5.52 C67.312,4.12266667 67.056,3.05066667 66.544,2.304 C66.032,1.55733333 65.3013333,1.184 64.352,1.184 Z"
					id="形状"></path>
				<path
					d="M73.92,7.328 L73.872,2.688 C73.8613333,2.144 73.8053333,1.78133333 73.704,1.6 C73.6026667,1.41866667 73.4026667,1.328 73.104,1.328 C72.9973333,1.328 72.8426667,1.34133333 72.64,1.368 C72.4373333,1.39466667 72.2826667,1.408 72.176,1.408 C71.76,1.408 71.552,1.22133333 71.552,0.848 C71.552,0.474666667 71.7493333,0.288 72.144,0.288 C72.272,0.288 72.472,0.301333333 72.744,0.328 C73.016,0.354666667 73.2266667,0.368 73.376,0.368 C73.7173333,0.368 74,0.357333333 74.224,0.336 C74.5546667,0.304 74.7573333,0.288 74.832,0.288 C75.0666667,0.288 75.2106667,0.357333333 75.264,0.496 C75.3066667,0.592 75.328,0.757333333 75.328,0.992 C75.328,1.024 75.3226667,1.152 75.312,1.376 C75.2586667,2.51733333 75.232,3.552 75.232,4.48 L75.232,6.288 C75.232,6.61866667 75.2373333,7.06133333 75.248,7.616 C75.2693333,8.288 75.28,8.73066667 75.28,8.944 C75.2906667,9.68 75.536,10.048 76.016,10.048 C76.1333333,10.048 76.3093333,10.0346667 76.544,10.008 C76.7786667,9.98133333 76.9546667,9.968 77.072,9.968 C77.584,9.968 77.84,10.1546667 77.84,10.528 C77.84,10.9013333 77.6053333,11.088 77.136,11.088 C76.9546667,11.088 76.784,11.0773333 76.624,11.056 C75.728,10.9386667 75.0453333,10.88 74.576,10.88 C74.1066667,10.88 73.5306667,10.928 72.848,11.024 C72.464,11.0773333 72.192,11.104 72.032,11.104 C71.5733333,11.104 71.344,10.912 71.344,10.528 C71.344,10.1546667 71.6053333,9.968 72.128,9.968 C72.288,9.968 72.4533333,9.984 72.624,10.016 C72.88,10.0373333 73.04,10.048 73.104,10.048 C73.4773333,10.048 73.7066667,9.90133333 73.792,9.608 C73.8773333,9.31466667 73.92,8.55466667 73.92,7.328 Z"
					id="路径"></path>
				<path
					d="M81.76,11.296 C81.4826667,11.296 81.248,11.1973333 81.056,11 C80.864,10.8026667 80.768,10.5653333 80.768,10.288 C80.768,10.0106667 80.864,9.77333333 81.056,9.576 C81.248,9.37866667 81.4826667,9.28 81.76,9.28 C82.0373333,9.28 82.272,9.37866667 82.464,9.576 C82.656,9.77333333 82.752,10.0106667 82.752,10.288 C82.752,10.5653333 82.656,10.8026667 82.464,11 C82.272,11.1973333 82.0373333,11.296 81.76,11.296 Z"
					id="路径"></path>
				<path
					d="M86.016,9.424 L88.24,6.88 L86.016,4.256 C85.8666667,4.08533333 85.6853333,4 85.472,4 C85.3866667,4 85.3226667,4.00533333 85.28,4.016 L85.008,4.08 C84.9653333,4.09066667 84.8906667,4.096 84.784,4.096 C84.432,4.096 84.256,3.92533333 84.256,3.584 C84.256,3.22133333 84.4746667,3.04 84.912,3.04 L84.96,3.04 C84.9706667,3.04 85.2373333,3.06133333 85.76,3.104 C86.0266667,3.12533333 86.2506667,3.136 86.432,3.136 C86.6133333,3.136 86.8746667,3.12 87.216,3.088 C87.5573333,3.056 87.8133333,3.04 87.984,3.04 C88.4213333,3.04 88.64,3.22133333 88.64,3.584 C88.64,3.92533333 88.4373333,4.096 88.032,4.096 C87.9466667,4.096 87.8666667,4.08533333 87.792,4.064 L87.552,4 L87.456,4 C87.4133333,4 87.392,4.01066667 87.392,4.032 C87.4133333,4.096 87.4613333,4.17066667 87.536,4.256 L88.992,6.016 L90.512,4.256 C90.608,4.14933333 90.656,4.07466667 90.656,4.032 C90.6453333,4.01066667 90.6186667,4 90.576,4 C90.5226667,4 90.4346667,4.016 90.312,4.048 C90.1893333,4.08 90.096,4.096 90.032,4.096 C89.648,4.096 89.456,3.91466667 89.456,3.552 C89.456,3.2 89.68,3.024 90.128,3.024 C90.1066667,3.024 90.3893333,3.05066667 90.976,3.104 C91.2106667,3.12533333 91.4613333,3.136 91.728,3.136 C91.9946667,3.136 92.2773333,3.12 92.576,3.088 C92.8746667,3.056 93.088,3.04 93.216,3.04 C93.6853333,3.04 93.92,3.22133333 93.92,3.584 C93.92,3.936 93.7386667,4.112 93.376,4.112 C93.2906667,4.112 93.168,4.09066667 93.008,4.048 C92.848,4.00533333 92.7253333,3.984 92.64,3.984 C92.384,3.984 92.032,4.24 91.584,4.752 L89.728,6.864 L92.224,9.808 C92.3733333,9.98933333 92.5546667,10.08 92.768,10.08 C92.832,10.08 92.9306667,10.0693333 93.064,10.048 C93.1973333,10.0266667 93.296,10.016 93.36,10.016 C93.744,10.016 93.936,10.1866667 93.936,10.528 C93.936,10.9013333 93.712,11.088 93.264,11.088 L93.136,11.088 L92.512,11.008 C92.3413333,10.9866667 92.0853333,10.976 91.744,10.976 C91.456,10.976 91.168,10.992 90.88,11.024 L90.304,11.088 L90.128,11.088 C89.6266667,11.088 89.376,10.9173333 89.376,10.576 C89.376,10.2026667 89.5733333,10.016 89.968,10.016 C90.1066667,10.016 90.304,10.0373333 90.56,10.08 C90.5813333,10.0906667 90.6186667,10.096 90.672,10.096 C90.7786667,10.096 90.832,10.0533333 90.832,9.968 C90.832,9.936 90.816,9.904 90.784,9.872 L90.736,9.808 L88.96,7.728 L87.152,9.808 C87.0773333,9.89333333 87.04,9.95733333 87.04,10 C87.04,10.0533333 87.0933333,10.08 87.2,10.08 C87.2746667,10.08 87.3866667,10.0693333 87.536,10.048 C87.6853333,10.0266667 87.7973333,10.016 87.872,10.016 C88.3306667,10.016 88.56,10.2026667 88.56,10.576 C88.56,10.9173333 88.3306667,11.088 87.872,11.088 L87.648,11.088 L87.008,11.024 C86.688,10.992 86.4053333,10.976 86.16,10.976 C85.968,10.976 85.7386667,10.992 85.472,11.024 C85.1093333,11.0666667 84.8426667,11.088 84.672,11.088 C84.224,11.088 84,10.9066667 84,10.544 C84,10.192 84.192,10.016 84.576,10.016 C84.64,10.016 84.736,10.024 84.864,10.04 C84.992,10.056 85.088,10.064 85.152,10.064 C85.3546667,10.064 85.6426667,9.85066667 86.016,9.424 Z"
					id="路径"></path>
				<path
					d="M97.28,4.56 L99.12,9.968 L101.072,4.64 C101.125333,4.49066667 101.152,4.37333333 101.152,4.288 C101.152,4.10666667 101.029333,4.016 100.784,4.016 C100.656,4.016 100.554667,4.02666667 100.48,4.048 C100.309333,4.06933333 100.197333,4.08 100.144,4.08 C99.792,4.08 99.616,3.90933333 99.616,3.568 C99.616,3.20533333 99.8453333,3.024 100.304,3.024 C100.368,3.024 100.474667,3.03466667 100.624,3.056 L101.2,3.136 C101.349333,3.15733333 101.509333,3.168 101.68,3.168 C101.861333,3.168 102.128,3.14666667 102.48,3.104 C102.832,3.06133333 103.098667,3.04 103.28,3.04 C103.738667,3.04 103.968,3.216 103.968,3.568 C103.968,3.90933333 103.792,4.08 103.44,4.08 C103.333333,4.08 103.253333,4.06933333 103.2,4.048 C103.061333,4.016 102.965333,4 102.912,4 C102.709333,4 102.501333,4.272 102.288,4.816 L100.112,10.256 C99.632,11.4613333 99.1786667,12.336 98.752,12.88 C98.0266667,13.808 97.12,14.272 96.032,14.272 C95.3813333,14.272 94.8346667,14.1066667 94.392,13.776 C93.9493333,13.4453333 93.728,13.0453333 93.728,12.576 C93.728,12.2453333 93.824,11.976 94.016,11.768 C94.208,11.56 94.4586667,11.456 94.768,11.456 C95.0133333,11.456 95.216,11.528 95.376,11.672 C95.536,11.816 95.616,11.9946667 95.616,12.208 C95.616,12.5493333 95.4613333,12.768 95.152,12.864 C95.312,13.0986667 95.616,13.216 96.064,13.216 C96.6293333,13.216 97.1386667,13.0053333 97.592,12.584 C98.0453333,12.1626667 98.272,11.6906667 98.272,11.168 C98.272,10.9013333 98.128,10.4053333 97.84,9.68 L96.08,5.232 C96.08,5.232 96.016,5.06133333 95.888,4.72 C95.7066667,4.24 95.4986667,4 95.264,4 C95.2,4 95.0853333,4.016 94.92,4.048 C94.7546667,4.08 94.6453333,4.096 94.592,4.096 C94.2186667,4.096 94.032,3.92533333 94.032,3.584 C94.032,3.22133333 94.2773333,3.04 94.768,3.04 C94.928,3.04 95.0506667,3.04533333 95.136,3.056 L95.776,3.136 C95.7866667,3.136 95.8293333,3.136 95.904,3.136 C95.9786667,3.14666667 96.0426667,3.152 96.096,3.152 C96.48,3.152 96.8906667,3.13066667 97.328,3.088 C97.6586667,3.056 97.8773333,3.04 97.984,3.04 C98.432,3.04 98.656,3.216 98.656,3.568 C98.656,3.92 98.4533333,4.096 98.048,4.096 C97.984,4.096 97.8826667,4.08266667 97.744,4.056 C97.6053333,4.02933333 97.504,4.016 97.44,4.016 C97.2906667,4.016 97.216,4.09066667 97.216,4.24 C97.216,4.32533333 97.2373333,4.432 97.28,4.56 Z"
					id="路径"></path>
				<path
					d="M104.704,9.376 L109.92,4.096 L107.472,4.096 C106.672,4.096 106.170667,4.12 105.968,4.168 C105.765333,4.216 105.664,4.34133333 105.664,4.544 C105.664,4.62933333 105.674667,4.72533333 105.696,4.832 C105.749333,5.10933333 105.776,5.37066667 105.776,5.616 C105.776,6.02133333 105.6,6.224 105.248,6.224 C104.885333,6.224 104.704,5.98933333 104.704,5.52 C104.704,5.31733333 104.709333,5.17866667 104.72,5.104 C104.762667,4.784 104.784,4.55466667 104.784,4.416 C104.784,4.30933333 104.765333,4.152 104.728,3.944 C104.690667,3.736 104.672,3.57866667 104.672,3.472 C104.672,3.14133333 104.938667,2.976 105.472,2.976 C105.642667,2.976 105.872,2.98133333 106.16,2.992 C106.490667,3.01333333 106.72,3.024 106.848,3.024 L107.808,3.04 L110.528,3.04 C111.221333,3.04 111.568,3.28533333 111.568,3.776 C111.568,4 111.365333,4.31466667 110.96,4.72 L105.776,9.952 L109.584,9.952 C110.213333,9.952 110.528,9.77066667 110.528,9.408 L110.528,9.104 C110.528,8.92266667 110.517333,8.768 110.496,8.64 C110.474667,8.23466667 110.464,8.04266667 110.464,8.064 C110.464,7.88266667 110.517333,7.73066667 110.624,7.608 C110.730667,7.48533333 110.864,7.424 111.024,7.424 C111.365333,7.424 111.536,7.62666667 111.536,8.032 C111.536,8.21333333 111.525333,8.4 111.504,8.592 C111.461333,8.976 111.44,9.25333333 111.44,9.424 C111.44,9.54133333 111.453333,9.712 111.48,9.936 C111.506667,10.16 111.52,10.3306667 111.52,10.448 C111.52,10.864 111.285333,11.0666667 110.816,11.056 L109.84,11.024 L105.232,11.024 C104.965333,11.024 104.746667,10.944 104.576,10.784 C104.405333,10.624 104.32,10.4213333 104.32,10.176 C104.32,9.89866667 104.448,9.632 104.704,9.376 Z"
					id="路径"></path>
			</g>
		</g>
	</g>
</svg>