<svg width="200px" height="200px" viewBox="0 0 200 200" version="1.1" xmlns="http://www.w3.org/2000/svg"
	xmlns:xlink="http://www.w3.org/1999/xlink">
	<g id="页面-3" stroke="none" stroke-width="1" fill="none" fill-rule="evenodd">
		<g id="编组">
			<rect id="矩形" fill="#3347E7" x="0" y="0" width="200" height="200" rx="40"></rect>
			<g id="编组-2" transform="translate(25.2563, 55.0171)" fill="#FFFFFF" fill-rule="nonzero">
				<path
					d="M74.8231066,5.8007208 L74.4937009,6.78893792 L55.2783679,78.3797784 C53.9607451,83.320864 56.9253965,88.3717515 61.8664821,89.6893743 C66.3683601,90.8971953 71.0898419,88.4815534 72.8466723,84.1992792 L73.176078,83.2110621 L92.391411,11.6202216 C93.7090338,6.67913602 90.7443825,1.6282485 85.8032968,0.310625672 C81.3014188,-0.897195256 76.579937,1.5184466 74.8231066,5.8007208 L74.8231066,5.8007208 Z"
					id="路径"></path>
				<path
					d="M117.316443,13.5966559 C114.351791,14.4750711 112.155753,16.7809111 111.38714,19.7455624 C110.728329,22.3808081 111.277338,25.1258556 112.814565,27.3218937 L113.583178,28.2003089 L129.83386,45.2196038 L113.583178,62.2388987 C112.045952,63.8859272 111.167536,66.0819653 111.167536,68.3878052 C111.167536,70.6936452 112.045952,72.8896832 113.583178,74.5367118 C115.120405,76.1837403 117.206641,77.0621555 119.512481,77.0621555 C121.379113,77.0621555 123.135944,76.4033441 124.563368,75.1955232 L125.441784,74.4269099 L147.621768,51.1489065 C150.586419,47.9646514 150.915825,43.1333677 148.390381,39.6197068 L147.621768,38.7412916 L125.441784,15.4632882 C123.355548,13.7064578 120.171292,12.8280426 117.316443,13.5966559 L117.316443,13.5966559 Z"
					id="路径"></path>
				<path
					d="M25.5220523,14.8044768 L24.6436371,15.5730901 L2.46365282,38.8510935 C-0.500998549,42.0353486 -0.830404256,46.8666323 1.6950395,50.3802932 L2.46365282,51.2587084 L24.6436371,74.5367118 C27.7180904,77.720967 32.8787798,77.8307689 36.063035,74.7563156 L36.3924407,74.4269099 C39.3570921,71.3524566 39.6864978,66.5211729 37.161054,63.007512 L36.3924407,62.1290968 L20.1417591,45.1098019 L36.3924407,28.090507 C39.3570921,24.5768461 39.2472902,19.4161567 36.063035,16.0122977 C33.3179874,12.8280426 28.7063075,12.3888349 25.5220523,14.8044768 Z"
					id="路径"></path>
			</g>
		</g>
	</g>
</svg>