<svg width="380px" height="380px" viewBox="0 0 380 380" version="1.1" xmlns="http://www.w3.org/2000/svg"
	xmlns:xlink="http://www.w3.org/1999/xlink">
	<g id="123" stroke="none" stroke-width="1" fill="none" fill-rule="evenodd">
		<g id="编组">
			<rect id="矩形" fill="#E1251B" x="0" y="0" width="380" height="380"></rect>
			<path
				d="M309.160006,175.839622 C312.020006,179.839622 314.160006,185.269622 313.920006,196.649622 C310.700006,232.379622 280.370006,254.939622 250.170006,254.939622 C217.490006,254.939622 194.480006,231.419622 180.640006,205.139622 C177.370006,198.929622 175.000006,191.999622 172.770006,185.999622 C168.400006,191.939622 159.190006,201.629622 154.500006,206.139622 C157.338957,214.141421 161.047843,221.807347 165.560006,228.999622 C169.250006,234.749622 178.560006,247.759622 191.870006,258.059622 C203.970006,267.389622 215.580006,273.119622 228.710006,276.389622 C250.887255,281.718842 274.260927,278.423151 294.100006,267.169622 C317.850006,253.559622 334.590006,228.489622 337.620006,202.459622 C331.770006,192.759622 319.090006,181.299622 309.160006,175.839622 Z"
				id="路径" fill="#FFFFFF" fill-rule="nonzero"></path>
			<path
				d="M109.350006,166.369622 C117.628767,166.362529 125.742038,168.688034 132.760006,173.079622 C138.390006,167.079622 143.370006,160.879622 148.540006,154.629622 C127.669296,139.997294 100.388634,138.1999 77.7785583,149.967484 C55.1684821,161.735068 40.9892469,185.110576 41,210.599622 C41,214.118516 41.2715885,217.632162 41.8100061,221.109622 C43.7200061,223.469622 62.9600061,221.869622 65.9600061,219.169622 C65.404923,216.346635 65.1236187,213.476661 65.1200061,210.599622 C65.1200061,186.172067 84.9224516,166.369622 109.350006,166.369622 Z"
				id="路径" fill="#FFFFFF" fill-rule="nonzero"></path>
			<path
				d="M109.350006,278.999622 C84.9339049,278.996067 62.3744839,265.966648 50.1700061,244.819622 C51.0900061,243.599622 72.5900061,241.209622 77.7200061,241.499622 C86.029273,250.033987 97.4387029,254.842324 109.350006,254.829622 C109.350006,254.829622 136.550006,256.919622 161.970006,236.829622 C161.970006,236.829622 171.530006,250.449622 178.870006,255.569622 C178.870006,255.569622 154.900006,278.999622 109.350006,278.999622 Z"
				id="路径" fill="#FFFFFF" fill-rule="nonzero"></path>
			<path
				d="M286.290006,109.799622 C254.000006,96.2296217 222.500006,100.189622 191.370006,123.069622 C163.920006,143.239622 153.000006,163.559622 135.440006,180.999622 C114.440006,201.859622 98.6900061,208.879622 86.2000061,213.599622 C73.3000061,218.479622 55.3000061,221.809622 41.8100061,221.069622 C43.1096102,229.421143 45.9440333,237.45992 50.1700061,244.779622 C84.6100061,244.189622 108.890006,231.009622 124.550006,221.459622 C138.240006,213.109622 158.840006,192.079622 169.650006,178.459622 C187.020006,156.599622 209.650006,135.689622 230.340006,129.129622 C259.240006,119.979622 287.340006,132.779622 300.960006,150.859622 C302.180006,152.449622 327.720006,161.619622 335.750006,168.519622 C332.800006,155.999622 318.880006,123.499622 286.290006,109.799622 Z"
				id="路径" fill="#FFFFFF" fill-rule="nonzero"></path>
			<path
				d="M335.000006,165.759622 C319.73024,154.990206 301.53491,149.142579 282.850006,148.999622 C260.240006,148.999622 237.600006,157.809622 221.670006,173.499622 C210.080006,184.899622 204.440006,194.149622 191.590006,209.559622 C196.423949,216.914781 202.162149,223.633985 208.670006,229.559622 C210.330006,227.139622 219.670006,213.919622 226.670006,204.629622 C235.670006,192.809622 244.810006,183.359622 258.670006,177.889622 C287.697191,166.216684 320.916276,177.043864 337.490006,203.579622 C339.366084,190.939618 338.517097,178.044549 335.000006,165.759622 L335.000006,165.759622 Z"
				id="路径" fill="#FFFFFF" fill-rule="nonzero"></path>
		</g>
	</g>
</svg>